<?xml version="1.0" standalone="no"?>
<!DOCTYPE svg PUBLIC "-//W3C//DTD SVG 20010904//EN"
 "http://www.w3.org/TR/2001/REC-SVG-20010904/DTD/svg10.dtd">
<svg version="1.0" xmlns="http://www.w3.org/2000/svg"
 width="80.000000pt" height="80.000000pt" viewBox="0 0 80.000000 80.000000"
 preserveAspectRatio="xMidYMid meet">
<metadata>
Created by potrace 1.11, written by Peter Selinger 2001-2013
</metadata>
<g transform="translate(0.000000,80.000000) scale(0.100000,-0.100000)"
fill="#000000" stroke="none">
<path d="M361 596 c-19 -23 -4 -56 25 -56 28 0 42 25 27 49 -14 22 -37 25 -52
7z m39 -27 c0 -5 -7 -9 -15 -9 -15 0 -20 12 -9 23 8 8 24 -1 24 -14z"/>
<path d="M280 545 c-19 -23 -8 -50 22 -53 19 -2 28 2 33 18 12 39 -29 66 -55
35z m38 -23 c2 -7 -3 -12 -12 -12 -9 0 -16 7 -16 16 0 17 22 14 28 -4z"/>
<path d="M447 553 c-4 -3 -7 -16 -7 -29 0 -20 17 -34 41 -34 15 0 28 43 17 58
-11 13 -40 16 -51 5z m35 -28 c0 -5 -5 -11 -11 -13 -6 -2 -11 4 -11 13 0 9 5
15 11 13 6 -2 11 -8 11 -13z"/>
<path d="M360 510 c0 -5 5 -10 10 -10 6 0 10 5 10 10 0 6 -4 10 -10 10 -5 0
-10 -4 -10 -10z"/>
<path d="M390 510 c0 -5 7 -10 16 -10 15 0 15 -2 1 -24 -16 -23 -13 -36 6 -36
5 0 7 6 4 14 -3 8 -1 16 5 18 15 5 0 48 -18 48 -8 0 -14 -4 -14 -10z"/>
<path d="M340 480 c0 -5 4 -10 9 -10 6 0 13 5 16 10 3 6 -1 10 -9 10 -9 0 -16
-4 -16 -10z"/>
<path d="M285 456 c-12 -9 -15 -19 -10 -35 9 -30 59 -26 63 6 4 29 -28 47 -53
29z m35 -27 c0 -5 -7 -9 -15 -9 -15 0 -20 12 -9 23 8 8 24 -1 24 -14z"/>
<path d="M366 461 c-4 -7 -5 -15 -2 -18 9 -9 19 4 14 18 -4 11 -6 11 -12 0z"/>
<path d="M450 455 c-19 -23 -8 -50 22 -53 34 -4 50 34 22 55 -23 17 -29 16
-44 -2z m38 -23 c2 -7 -3 -12 -12 -12 -9 0 -16 7 -16 16 0 17 22 14 28 -4z"/>
<path d="M362 396 c-19 -42 36 -67 58 -27 8 16 6 23 -12 35 -29 21 -33 20 -46
-8z m38 -11 c0 -8 -4 -15 -9 -15 -13 0 -22 16 -14 24 11 11 23 6 23 -9z"/>
<path d="M40 247 c0 -45 10 -45 13 -1 3 40 41 41 45 2 2 -16 7 -28 12 -28 5 0
7 8 5 18 -5 28 10 45 32 38 15 -5 19 -13 15 -31 -2 -15 0 -25 7 -25 8 0 11 12
9 33 l-3 32 -67 1 -68 1 0 -40z"/>
<path d="M202 278 c-18 -18 -15 -46 6 -55 24 -12 55 -10 59 3 2 6 -8 9 -26 6
-16 -2 -32 1 -35 7 -5 7 5 11 27 11 40 0 51 8 36 27 -14 16 -51 17 -67 1z m53
-8 c4 -6 -7 -10 -27 -10 -25 0 -29 3 -18 10 19 13 37 13 45 0z"/>
<path d="M292 274 c-21 -37 1 -59 55 -57 7 1 10 -4 7 -9 -4 -6 -20 -7 -36 -4
-18 3 -27 2 -23 -4 3 -6 20 -10 36 -10 32 0 48 24 43 64 -1 11 -3 24 -3 29 -2
15 -70 7 -79 -9z m66 -21 c3 -20 -1 -23 -27 -23 -23 0 -31 5 -31 18 0 25 10
33 35 30 12 -2 21 -12 23 -25z"/>
<path d="M395 280 c-4 -6 5 -7 23 -4 20 4 31 2 35 -8 4 -11 -2 -13 -24 -10
-32 5 -53 -23 -28 -39 19 -12 29 -11 29 1 0 6 -7 10 -16 10 -8 0 -13 4 -10 9
4 5 14 8 24 6 9 -2 22 -4 27 -4 6 -1 4 -5 -3 -10 -11 -7 -11 -9 2 -14 13 -5
16 1 16 27 0 34 -13 46 -50 46 -10 0 -22 -4 -25 -10z"/>
<path d="M488 281 c-5 -20 -3 -61 3 -61 4 0 9 12 11 28 2 19 9 28 26 30 19 3
22 -1 22 -27 0 -17 5 -31 11 -31 6 0 9 14 7 33 -3 30 -6 32 -40 33 -21 1 -39
-2 -40 -5z"/>
<path d="M592 278 c-18 -18 -15 -46 6 -57 21 -11 62 -4 62 11 0 5 -8 4 -19 -1
-13 -7 -24 -6 -37 4 -18 13 -16 14 19 15 31 0 38 3 35 18 -4 21 -48 28 -66 10z
m48 -8 c12 -8 9 -10 -12 -10 -16 0 -28 5 -28 10 0 13 20 13 40 0z"/>
<path d="M679 279 c-6 -41 3 -77 10 -39 4 23 12 36 25 38 22 5 36 -14 31 -40
-2 -10 1 -18 6 -18 6 0 9 15 7 33 -3 30 -6 32 -40 33 -21 1 -39 -3 -39 -7z"/>
</g>
</svg>
